G04 #@! TF.GenerationSoftware,KiCad,Pcbnew,6.99.0-unknown-bccc2f5792~148~ubuntu21.10.1*
G04 #@! TF.CreationDate,2022-10-30T21:35:02+01:00*
G04 #@! TF.ProjectId,AK-NW-12_Shield_OPi-PC-Zero_Nano_Pi_v1.3,414b2d4e-572d-4313-925f-536869656c64,rev?*
G04 #@! TF.SameCoordinates,Original*
G04 #@! TF.FileFunction,Profile,NP*
%FSLAX46Y46*%
G04 Gerber Fmt 4.6, Leading zero omitted, Abs format (unit mm)*
G04 Created by KiCad (PCBNEW 6.99.0-unknown-bccc2f5792~148~ubuntu21.10.1) date 2022-10-30 21:35:02*
%MOMM*%
%LPD*%
G01*
G04 APERTURE LIST*
G04 #@! TA.AperFunction,Profile*
%ADD10C,0.100000*%
G04 #@! TD*
G04 #@! TA.AperFunction,Profile*
%ADD11C,0.200000*%
G04 #@! TD*
G04 APERTURE END LIST*
D10*
X167000000Y-70000000D02*
X142300000Y-70000000D01*
D11*
X97500000Y-55800000D02*
G75*
G03*
X97500000Y-55800000I-1500000J0D01*
G01*
D10*
X128700000Y-48000000D02*
X128700000Y-67000000D01*
X50000000Y-163000000D02*
X199900000Y-163000000D01*
X207500000Y-129800000D02*
X207500000Y-157200000D01*
X42400000Y-157200000D02*
X50000000Y-163000000D01*
X168500000Y-48000000D02*
X168500000Y-68300000D01*
X126000000Y-70000000D02*
X102900000Y-70000000D01*
X207500000Y-129800000D02*
X196100000Y-129800000D01*
X196100000Y-48000000D02*
X168500000Y-48000000D01*
D11*
X97500000Y-91200000D02*
G75*
G03*
X97500000Y-91200000I-1500000J0D01*
G01*
D10*
X126000000Y-70000000D02*
X128700000Y-67000000D01*
X42400000Y-53800000D02*
X42400000Y-157200000D01*
X102900000Y-70000000D02*
X102900000Y-48000000D01*
X128700000Y-48000000D02*
X142300000Y-48000000D01*
X196100000Y-129800000D02*
X196100000Y-48000000D01*
X167000000Y-70000000D02*
X168500000Y-68300000D01*
X199900000Y-163000000D02*
X207500000Y-157200000D01*
X102900000Y-48000000D02*
X50000000Y-48000000D01*
X42400000Y-53800000D02*
X50000000Y-48000000D01*
X186450000Y-50874600D02*
X176750000Y-50874600D01*
X176750000Y-50874600D02*
X176750000Y-119500000D01*
X176750000Y-119500000D02*
X186450000Y-119500000D01*
X186450000Y-119500000D02*
X186450000Y-50874600D01*
X142300000Y-70000000D02*
X142300000Y-48000000D01*
M02*
