M48
; DRILL file {KiCad 6.99.0-unknown-bccc2f5792~148~ubuntu21.10.1} date So 30 Okt 2022 21:35:31
; FORMAT={-:-/ absolute / metric / decimal}
; #@! TF.CreationDate,2022-10-30T21:35:31+01:00
; #@! TF.GenerationSoftware,Kicad,Pcbnew,6.99.0-unknown-bccc2f5792~148~ubuntu21.10.1
; #@! TF.FileFunction,Plated,1,2,PTH
FMAT,2
METRIC
; #@! TA.AperFunction,Plated,PTH,ViaDrill
T1C0.400
; #@! TA.AperFunction,Plated,PTH,ComponentDrill
T2C0.762
; #@! TA.AperFunction,Plated,PTH,ComponentDrill
T3C0.800
; #@! TA.AperFunction,Plated,PTH,ComponentDrill
T4C0.899
; #@! TA.AperFunction,Plated,PTH,ComponentDrill
T5C0.900
; #@! TA.AperFunction,Plated,PTH,ComponentDrill
T6C1.000
; #@! TA.AperFunction,Plated,PTH,ComponentDrill
T7C1.001
; #@! TA.AperFunction,Plated,PTH,ComponentDrill
T8C1.300
; #@! TA.AperFunction,Plated,PTH,ComponentDrill
T9C3.000
; #@! TA.AperFunction,Plated,PTH,ViaDrill
T10C5.500
%
G90
G05
T1
X47.7Y-127.1
X63.5Y-58.6
X64.8Y-88.6
X79.0Y-105.2
X82.6Y-151.7
X86.0Y-87.5
X99.1Y-131.2
X105.7Y-111.7
X106.5Y-104.1
X122.1Y-90.6
X123.8Y-79.6
X125.2Y-121.9
X133.5Y-115.8
X134.1Y-67.2
X134.8Y-116.0
X135.2Y-66.7
X136.0Y-69.4
X136.2Y-74.3
X136.2Y-116.2
X136.799Y-100.1
X136.799Y-101.5
X136.799Y-102.9
X136.799Y-104.3
X136.799Y-105.7
X136.799Y-107.1
X136.9Y-85.2
X137.8Y-84.0
X138.8Y-82.9
X141.5Y-140.3
X154.0Y-89.1
X154.1Y-71.7
X154.2Y-73.3
X156.4Y-72.4
X160.6Y-98.8
X169.8Y-105.4
X170.5Y-81.9
X170.6Y-56.4
X188.2Y-144.4
X190.1Y-104.3
T2
X118.496Y-86.957
X118.496Y-89.507
X118.496Y-92.032
X163.1Y-74.84
X163.1Y-77.38
X163.1Y-79.92
X163.1Y-82.46
X163.1Y-85.0
X163.1Y-87.54
X163.1Y-90.08
X163.1Y-92.62
X163.1Y-95.16
X163.1Y-97.7
X163.1Y-100.24
X163.1Y-102.78
X163.1Y-105.32
X163.1Y-107.86
X163.1Y-110.4
X163.1Y-112.94
X163.1Y-115.48
X163.1Y-118.02
X163.1Y-120.56
X163.1Y-123.1
X165.64Y-74.84
X165.64Y-77.38
X165.64Y-79.92
X165.64Y-82.46
X165.64Y-85.0
X165.64Y-87.54
X165.64Y-90.08
X165.64Y-92.62
X165.64Y-95.16
X165.64Y-97.7
X165.64Y-100.24
X165.64Y-102.78
X165.64Y-105.32
X165.64Y-107.86
X165.64Y-110.4
X165.64Y-112.94
X165.64Y-115.48
X165.64Y-118.02
X165.64Y-120.56
X165.64Y-123.1
T3
X153.0Y-151.3
X153.0Y-153.84
X161.0Y-149.5
X161.0Y-152.04
X168.6Y-147.5
X168.6Y-150.04
X176.2Y-145.4
X176.2Y-147.94
X183.8Y-143.1
X183.8Y-145.64
X191.6Y-140.9
X191.6Y-143.44
T4
X181.65Y-131.5
X181.65Y-133.499
X181.65Y-135.5
X181.65Y-137.499
X201.0Y-142.001
X201.0Y-143.999
X201.0Y-146.001
X201.0Y-148.0
T5
X152.9Y-156.76
X152.9Y-159.3
X161.0Y-154.96
X161.0Y-157.5
X168.6Y-152.86
X168.6Y-155.4
X176.2Y-150.76
X176.2Y-153.3
X183.9Y-148.56
X183.9Y-151.1
X191.6Y-146.16
X191.6Y-148.7
T6
X45.72Y-79.1
X48.26Y-79.1
X50.8Y-79.1
X53.34Y-79.1
X55.88Y-79.1
X58.42Y-79.1
X65.85Y-120.235
X65.85Y-122.775
X68.39Y-120.235
X68.39Y-122.775
X70.93Y-120.235
X70.93Y-122.775
X71.2Y-73.484
X71.2Y-76.024
X73.47Y-120.235
X73.47Y-122.775
X73.74Y-73.484
X73.74Y-76.024
X76.01Y-120.235
X76.01Y-122.775
X76.28Y-73.484
X76.28Y-76.024
X78.82Y-73.484
X78.82Y-76.024
X87.863Y-56.925
X87.863Y-59.465
X87.863Y-62.005
X87.863Y-64.545
X90.403Y-56.925
X90.403Y-59.465
X90.403Y-62.005
X90.403Y-64.545
X94.96Y-77.3
X94.96Y-79.84
X94.96Y-82.38
X94.96Y-84.92
X94.96Y-87.46
X97.51Y-59.48
X97.51Y-62.02
X97.51Y-64.56
X97.51Y-67.1
X101.103Y-54.425
X101.103Y-56.965
X101.103Y-59.505
X105.2Y-77.9
X107.74Y-77.9
X110.28Y-77.9
X112.82Y-77.9
X114.675Y-148.2
X115.36Y-77.9
X117.215Y-148.2
X117.9Y-77.9
X119.755Y-148.2
X122.295Y-148.2
X124.835Y-148.2
X129.881Y-56.915
X129.881Y-59.456
X129.881Y-61.995
X129.881Y-64.535
X129.881Y-67.075
X129.881Y-69.615
X129.881Y-72.156
X129.881Y-74.695
X129.881Y-77.236
X129.881Y-79.775
X129.881Y-82.316
X129.881Y-84.855
X129.881Y-87.395
X132.421Y-56.915
X132.421Y-59.456
X132.421Y-61.995
X132.421Y-64.535
X132.421Y-67.075
X132.421Y-69.615
X132.421Y-72.156
X132.421Y-74.695
X132.421Y-77.236
X132.421Y-79.775
X132.421Y-82.316
X132.421Y-84.855
X132.421Y-87.395
X135.231Y-56.137
X135.231Y-58.677
X135.231Y-61.217
X138.041Y-49.835
X138.041Y-52.375
X138.041Y-54.915
X145.125Y-78.1
X147.665Y-78.1
X150.205Y-78.1
X152.745Y-78.1
X155.285Y-78.1
X157.825Y-78.1
X173.061Y-56.915
X173.061Y-59.456
X173.061Y-61.995
X173.061Y-64.535
X173.061Y-67.075
X173.061Y-69.615
X173.061Y-72.156
X173.061Y-74.695
X173.061Y-77.236
X173.061Y-79.775
X173.061Y-82.316
X173.061Y-84.855
X173.061Y-87.395
T8
X178.93Y-130.771
X178.93Y-137.769
X184.37Y-130.771
X184.37Y-137.769
X198.28Y-141.272
X198.28Y-148.269
X203.72Y-141.272
X203.72Y-148.269
T9
X131.601Y-51.015
X131.601Y-93.015
X171.601Y-51.015
X171.601Y-93.015
T10
X57.5Y-65.0
X57.5Y-150.0
X192.5Y-65.0
X197.5Y-153.0
T7
X49.199Y-56.5G85X49.199Y-54.501
G05
X55.499Y-52.249G85X53.501Y-52.249
G05
X55.75Y-58.251G85X53.25Y-58.251
G05
T0
M30
